<?xml version="1.0" encoding="UTF-8"?>
<svg id="Layer_2" data-name="Layer 2"
  xmlns="http://www.w3.org/2000/svg" viewBox="0 0 521.01 60.03">
  <g id="Layer_1-2" data-name="Layer 1">
    <g>
      <path fill="#E00201" d="M22.5,57.09C-9.49,60.65,1.35,27.96,3.5,15.09c1-6,3-9,6.51-10.09,37.01-11.48,75.86,9.36,31.49,33.65-2.2,1.2-4.75,1.72-7.22,1.3-6.73-1.14-.44-7.67,1.61-16.21,2.43-10.1-2.78-13.58-10.72-6.89-.32.27-.62.57-.89.9-9.63,10.97,17.22,35.35-1.78,39.35"/>
      <path fill="#E00201" d="M109.99,42.02c6.23-.46,13.23,3.42,7.35,10.11-5.2,5.57-15.43,7.77-23.17,7.87-12.61.65-22.55-7.25-24.53-19.99-1.16-7.91,1.23-17.08,6.95-22.37,6.97-6.01,17.09-7.22,26.02-6.31,5.4.75,10.74,2.46,14.64,6.13,3.19,3.12,3.73,6.89,1.13,9.63-4.18,4.37-14.24,5.95-20.99,5.51-5.02-.39-9.71-2.45-11.89-1.52-.97.38-1.44,1.31-1.51,2.35,0,5.65,5.78,10.05,11.29,10.03,4.45.14,9.68-1.37,14.51-1.45h.2ZM96.93,28.21c7.04.4,12.81-6.26,3.47-9.82-4.08-1.69-12.44.04-12.08,4.58.46,3.6,4.99,5.13,8.37,5.23h.24Z"/>
      <path fill="#E00201" d="M137.53,30.77c.34-1.21.92-2.72.06-3.79-.97-1.15-3.51-.63-5.11-1.18-3.71-1.72-2.82-7.42-1.37-10.41,5.26-9.67,15.6-1.95,20.59-8.7,1.52-2.19,2.46-5.33,4.93-6.56,1.13-.46,1.94.27,2,1.65.09,2.02-.65,4.38-.28,6.43.73,3.84,5.31,3.56,8.44,3.78,1.91.06,3.44,1.26,3.6,3.25.31,2.87.35,5.79-.12,8.62-.65,3.18-2.51,1.66-6.32,2.02-.82.08-1.65.23-2.44.47-8.82,2.94-4.81,15.49.99,19.72,1.9,1.59,5.32,2.04,6.28,4.21,1.45,5.45-6.23,8.16-10.62,8.25-13.67.7-26.03-14.68-20.71-27.57l.06-.2Z"/>
      <path fill="#E1AA07FF" d="M258.5,20.09c-3.67-1.5-10.98-4.69-11.01.65.38,7.03,6.06,16.77,8.2,24.09,3.21,9.35.55,12.33-9.93,12.06-4.29.07-8.71.07-12.98-.07-2.3-.09-5.02-.29-6.69-1.71-3.74-3.72,1.01-10.93,2.22-15.33,2.31-6.96,6.01-15.08,4.58-21.69-1.76-4.87-11.74,2.11-15.55,2.26-5.7,1.46-7.93-4.62-6.84-9.26,1.92-12.11,44.84-8.47,55.7-5.31,3.98,1.06,5.96,4.43,6.05,8.42.19,7.39-1.42,14.16-8.75,8.9"/>
      <path fill="#0DC70DFF" d="M294.92,57.18c-6.55.8-12.55-.08-14.76-5.82-3.41-8.23-.08-24.69,1-37.69.46-2.82,2.72-3.71,5.3-3.74,6.57-.11,15-1.63,19.48.63,2.47,1.06,2.76,4,2.61,6.57-.2,6.55,2.17,4.35,5.07.79,4.56-5.28,13.1-8.49,19.61-8.01.92.11,2.47.16,2.59,1.06-.02.69-1.29,1.76-1.99,2.4-10.44,7.71-2.48,19.74-10.66,20.05-4.84.69-12.26-4.21-15.91-.27-3.64,4.77,4.48,19.52-1.81,22.1-1.2.53-2.59.68-3.95.85"/>
      <path fill="#2A16E7FF" d="M373.44,21.5c3.55,1.14,3.94-4.03,5.57-6.09,2.66-4.07,7.69-5.48,11.68-3.87,8.55,3.34,10.4,21.99,7.83,35.39-1.14,7.62-6.14,11.54-14,11.77-3.34.15-7.85-.54-8.62-4.06-.7-2.01,1.3-7.22-.28-7.21-2.1.72-3.97,3.39-6.14,4.96-1.97,1.62-4.39,3.31-6.76,4.53-32.84,15.74-35.89-62.8.07-42.19,3.96,1.86,7.05,4.97,10.51,6.74l.13.05ZM371.98,38.6c7.38-5.88-5.55-13.18-11.26-11.87-8.46,1.23-8.59,13.62.54,14.61,3.58.39,7.76-.62,10.57-2.63l.15-.11Z"/>
      <path fill="#AD12D8FF" d="M438.1,17.02c-2.76.63-5.78,2.16-7.41,4.36-5.38,8.71,12.04,16.23,21.71,17.02,3.03.48,7.48,0,9.31,2.7,1.43,3.42-2.08,7.72-5.12,10.57-15.42,13.49-48.3,5.07-47.32-17.34,0-5.13,1.66-10.26,5.21-13.97,9.57-10.2,33.22-13.96,44.05-4.22,3.87,3.62,5.1,9.86,1.25,13.71-4.03,4.13-12.7,4.33-16.41-.24-1.59-1.88-2-4.45-1.67-6.83.13-1.69.85-3.86.08-5.19-.7-1.06-2.46-.83-3.51-.62l-.16.03Z"/>
      <path fill="#E1AA07FF" d="M510.99,41.02c6.23-.46,13.23,3.42,7.35,10.11-5.2,5.57-15.43,7.77-23.17,7.87-12.61.65-22.55-7.25-24.53-19.99-1.16-7.91,1.23-17.08,6.95-22.37,6.97-6.01,17.09-7.22,26.02-6.31,5.4.75,10.74,2.46,14.64,6.13,3.19,3.12,3.73,6.89,1.13,9.63-4.18,4.37-14.24,5.95-20.99,5.51-5.02-.39-9.71-2.45-11.89-1.52-.97.38-1.44,1.31-1.51,2.35,0,5.65,5.78,10.05,11.29,10.03,4.45.14,9.68-1.37,14.51-1.45h.2ZM497.93,27.21c7.04.4,12.81-6.26,3.47-9.82-4.08-1.69-12.44.04-12.08,4.58.46,3.6,4.99,5.13,8.37,5.23h.24Z"/>
    </g>
  </g>
</svg>